<?xml version="1.0" standalone="no"?>
<!DOCTYPE svg PUBLIC "-//W3C//DTD SVG 20010904//EN"
 "http://www.w3.org/TR/2001/REC-SVG-20010904/DTD/svg10.dtd">
<svg version="1.0" xmlns="http://www.w3.org/2000/svg"
 width="300.000000pt" height="300.000000pt" viewBox="0 0 300.000000 300.000000"
 preserveAspectRatio="xMidYMid meet">
<metadata>
Created by potrace 1.11, written by Peter Selinger 2001-2013
</metadata>
<g transform="translate(0.000000,300.000000) scale(0.100000,-0.100000)"
fill="#000000" stroke="none">
<path d="M374 2068 c-78 -98 -213 -232 -301 -298 -40 -29 -73 -59 -73 -66 0
-7 37 -41 83 -77 96 -75 229 -208 287 -287 45 -61 68 -82 82 -74 4 3 34 38 65
77 74 93 208 224 294 288 37 28 70 57 73 64 5 14 -11 30 -94 93 -78 58 -202
183 -273 275 -33 42 -66 77 -73 77 -7 0 -39 -33 -70 -72z m136 -76 c89 -63
260 -258 260 -296 0 -39 -209 -259 -289 -304 l-38 -22 -44 29 c-87 55 -261
236 -282 292 -3 9 4 31 15 49 29 49 238 253 277 272 38 18 51 16 101 -20z"/>
<path d="M398 1980 c-88 -58 -258 -239 -258 -275 0 -27 21 -57 99 -138 36 -37
68 -71 71 -75 18 -25 116 -92 135 -92 54 0 306 249 305 302 -1 39 -208 256
-279 293 -27 13 -31 12 -73 -15z m68 -102 c9 -29 19 -59 22 -65 2 -7 -3 -13
-13 -13 -13 0 -16 -9 -15 -47 3 -86 2 -93 -21 -93 -19 0 -20 5 -17 63 3 46 0
65 -10 73 -13 9 -12 18 3 65 19 57 24 69 30 69 2 0 11 -24 21 -52z m-100 -122
c18 -14 18 -15 -6 -21 -14 -3 -31 -15 -38 -25 -10 -17 -8 -22 11 -35 53 -34
217 -27 249 12 10 13 8 18 -11 34 -13 10 -28 16 -33 13 -9 -6 -27 12 -28 27 0
4 18 2 40 -3 22 -6 38 -14 35 -18 -3 -4 2 -10 10 -14 22 -8 18 -44 -7 -60 -71
-46 -270 -37 -322 14 -24 23 -16 44 26 70 39 24 48 24 74 6z m90 -138 c6 -4
12 -34 13 -68 2 -63 4 -60 -46 -60 -7 0 -8 30 -4 117 1 21 15 25 37 11z"/>
<path d="M1000 1693 l0 -333 93 0 92 0 0 324 c0 179 -4 328 -8 333 -5 4 -47 8
-93 8 l-84 0 0 -332z"/>
<path d="M1280 1692 l0 -332 252 2 253 3 1 50 c0 28 -1 56 -4 63 -3 9 -45 12
-162 12 l-157 0 0 70 1 70 148 0 148 0 0 65 0 65 -127 0 c-71 -1 -137 -1 -148
-1 -18 1 -20 7 -19 59 1 31 2 62 3 67 0 7 59 10 158 10 l158 0 1 58 c0 32 -4
61 -10 65 -6 4 -120 7 -253 7 l-243 0 0 -333z"/>
<path d="M1890 1955 c-1 -87 -1 -506 0 -557 l0 -38 250 0 c138 0 250 3 251 8
1 11 1 95 0 110 -1 9 -40 12 -161 12 l-160 0 0 70 0 70 149 0 148 0 0 65 0 65
-131 0 c-72 -1 -139 -1 -148 -1 -15 1 -18 11 -18 65 0 42 4 65 13 68 6 2 77 4
156 3 133 -1 144 0 150 18 4 11 6 29 5 41 -1 11 -3 32 -3 46 l-1 25 -250 0
-250 0 0 -70z"/>
<path d="M2497 2015 c-2 -5 -3 -154 -3 -330 l1 -320 253 -3 252 -2 0 65 0 65
-160 0 -160 0 0 70 0 69 147 3 147 3 1 63 1 62 -136 0 c-74 -1 -141 -1 -148
-1 -10 1 -12 19 -10 68 l3 68 158 0 158 0 -3 65 -3 65 -247 0 c-158 0 -249 -3
-251 -10z"/>
<path d="M574 1346 c-22 -17 -12 -49 12 -39 13 5 15 3 9 -8 -8 -12 -6 -12 8 0
36 29 9 74 -29 47z m34 -27 c-3 -8 -7 -3 -11 10 -4 17 -3 21 5 13 5 -5 8 -16
6 -23z m-31 -1 c-3 -8 -6 -5 -6 6 -1 11 2 17 5 13 3 -3 4 -12 1 -19z"/>
<path d="M1422 1193 c-50 -33 -75 -86 -74 -158 2 -124 82 -198 196 -181 90 14
145 103 131 211 -12 99 -70 155 -160 155 -38 0 -61 -7 -93 -27z m144 -2 c86
-53 79 -272 -10 -315 -89 -42 -159 33 -157 169 1 126 83 197 167 146z"/>
<path d="M1773 1169 c-7 -7 -13 -21 -13 -30 0 -10 -9 -21 -20 -24 -11 -3 -20
-11 -20 -17 0 -5 7 -8 15 -4 13 5 15 -10 15 -99 0 -92 3 -108 20 -125 21 -21
42 -24 75 -10 22 9 13 13 -22 10 -29 -2 -35 22 -31 135 l3 90 28 -3 c15 -2 27
1 27 7 0 6 -3 10 -7 10 -39 -6 -52 2 -55 37 -2 28 -5 33 -15 23z"/>
<path d="M1929 1153 c-5 -16 -20 -36 -32 -45 -19 -15 -19 -18 -4 -18 11 0 17
-8 18 -22 1 -13 2 -57 3 -98 2 -41 4 -80 4 -87 3 -20 41 -35 73 -28 38 9 38
23 -1 17 -21 -3 -30 0 -31 9 -1 8 -2 58 -3 112 l-2 97 28 0 c15 0 28 4 28 9 0
6 -9 8 -20 6 -22 -4 -37 18 -34 53 2 31 -14 28 -27 -5z"/>
<path d="M2755 1108 c-47 -10 -81 -44 -64 -64 14 -17 39 -7 39 15 0 25 20 41
52 41 30 0 48 -23 48 -65 0 -28 -5 -31 -69 -39 -81 -10 -119 -79 -69 -126 27
-25 64 -26 105 -1 31 19 31 19 36 0 4 -15 12 -19 32 -15 32 6 46 16 22 16 -15
0 -17 13 -17 96 0 52 -4 104 -10 114 -14 26 -58 38 -105 28z m71 -174 c-12
-61 -87 -88 -106 -38 -17 42 7 77 60 90 51 12 56 7 46 -52z"/>
<path d="M1014 1088 c12 -16 16 -47 16 -110 0 -77 3 -90 22 -108 12 -11 33
-20 48 -20 25 0 67 23 82 44 4 6 8 -1 8 -15 0 -24 4 -26 35 -25 37 1 45 10 20
20 -12 4 -15 27 -15 121 l0 115 -42 0 c-41 0 -42 -1 -21 -15 19 -13 22 -24 21
-88 -1 -96 -23 -136 -75 -137 -34 0 -43 29 -43 139 l0 101 -36 0 c-34 0 -35
-1 -20 -22z"/>
<path d="M2092 1087 c-26 -28 -28 -43 -6 -51 11 -4 19 3 27 24 13 34 50 50 76
33 12 -8 17 -30 19 -90 2 -68 0 -83 -18 -106 -29 -37 -77 -38 -86 -2 -13 54
20 95 76 95 11 0 20 4 20 9 0 10 -82 -4 -111 -19 -45 -24 -44 -96 2 -120 25
-14 82 -5 99 15 13 16 31 20 29 8 -5 -28 4 -32 54 -24 5 0 1 8 -7 16 -12 12
-15 36 -14 98 2 126 -6 137 -98 137 -30 0 -46 -6 -62 -23z"/>
<path d="M2299 1089 c11 -10 22 -26 24 -36 32 -112 59 -193 66 -197 12 -8 27
13 35 47 4 15 16 53 28 84 l21 56 30 -97 c17 -53 35 -95 41 -93 6 2 27 52 47
111 19 60 43 114 52 121 9 7 17 15 17 18 0 9 -80 5 -86 -4 -3 -5 2 -9 10 -9
22 0 20 -29 -6 -114 l-21 -71 -31 97 c-17 54 -36 98 -43 98 -6 0 -23 -37 -38
-82 -14 -46 -29 -89 -34 -96 -5 -8 -16 17 -30 70 -25 98 -25 98 -6 98 8 0 15
4 15 8 0 4 -25 8 -55 9 -55 0 -56 0 -36 -18z"/>
</g>
</svg>
